<svg width="1280" height="320" viewBox="0 0 1280 320" xmlns="http://www.w3.org/2000/svg">
<defs>
    <linearGradient id="bg_grad" x1="0" y1="0" x2="1280" y2="320" gradientUnits="userSpaceOnUse">
        <stop stop-color="#0D1117"/>
        <stop offset="1" stop-color="#161B22"/>
    </linearGradient>
    <pattern id="hex_grid" x="0" y="0" width="40" height="40" patternUnits="userSpaceOnUse">
        <path d="M20 0L37.32 10V30L20 40L2.68 30V10L20 0Z" fill="none" stroke="#30363d" stroke-width="1" opacity="0.3"/>
    </pattern>
    <linearGradient id="text_grad" x1="0" y1="0" x2="100%" y2="0">
        <stop stop-color="#38BDF8"/>
        <stop offset="1" stop-color="#FACC15"/>
    </linearGradient>
    <style>
        .title { font-family: -apple-system, BlinkMacSystemFont, "Segoe UI", sans-serif; font-weight: 800; font-size: 64px; letter-spacing: -1px; text-transform: uppercase; }
        .subtitle { font-family: -apple-system, BlinkMacSystemFont, "Segoe UI", sans-serif; font-weight: 300; font-size: 24px; fill: #8b949e; letter-spacing: 1px; }
    </style>
</defs>

<rect width="1280" height="320" fill="url(#bg_grad)"/>
<rect width="1280" height="320" fill="url(#hex_grid)"/>

<g transform="translate(160, 60)">
    <g transform="scale(0.4)">
        <defs><linearGradient id="lg_b" x1="256" y1="80" x2="256" y2="432" gradientUnits="userSpaceOnUse"><stop stop-color="#38BDF8"/><stop offset="1" stop-color="#0EA5E9"/></linearGradient><linearGradient id="lg_g" x1="256" y1="200" x2="256" y2="312" gradientUnits="userSpaceOnUse"><stop stop-color="#FACC15"/><stop offset="1" stop-color="#EAB308"/></linearGradient><filter id="lg_gl" x="-50%" y="-50%" width="200%" height="200%"><feGaussianBlur stdDeviation="8" result="coloredBlur"/><feMerge><feMergeNode in="coloredBlur"/><feMergeNode in="SourceGraphic"/></feMerge></filter></defs><path d="M256 32L449.92 144V368L256 480L62.08 368V144L256 32Z" fill="#0F172A" stroke="#1E293B" stroke-width="8"/><g filter="url(#lg_gl)"><path d="M256 160V352" stroke="url(#lg_b)" stroke-width="16" stroke-linecap="round"/><path d="M256 160L192 112" stroke="url(#lg_b)" stroke-width="12" stroke-linecap="round"/><path d="M256 160L320 112" stroke="url(#lg_b)" stroke-width="12" stroke-linecap="round"/><path d="M256 112V80" stroke="url(#lg_b)" stroke-width="12" stroke-linecap="round"/><path d="M256 352L192 400" stroke="url(#lg_b)" stroke-width="12" stroke-linecap="round"/><path d="M256 352L320 400" stroke="url(#lg_b)" stroke-width="12" stroke-linecap="round"/><path d="M256 400V432" stroke="url(#lg_b)" stroke-width="12" stroke-linecap="round"/><circle cx="192" cy="112" r="12" fill="#38BDF8"/><circle cx="320" cy="112" r="12" fill="#38BDF8"/><circle cx="256" cy="80" r="12" fill="#38BDF8"/><circle cx="192" cy="400" r="12" fill="#38BDF8"/><circle cx="320" cy="400" r="12" fill="#38BDF8"/><circle cx="256" cy="432" r="12" fill="#38BDF8"/></g><path d="M256 224L224 272H288L256 224Z" fill="url(#lg_g)"/><path d="M224 272L256 312L288 272" stroke="url(#lg_g)" stroke-width="8" stroke-linecap="round" stroke-linejoin="round"/><path d="M160 256H352" stroke="#64748B" stroke-width="4" stroke-dasharray="8 12" opacity="0.5"/>
    </g>

    <g transform="translate(240, 110)">
        <text x="0" y="0" class="title" fill="url(#text_grad)">VALHALLA</text>
        <text x="0" y="50" class="subtitle">A Post-IP Networking Stack</text>
    </g>
</g>
</svg>